<?xml version="1.0" encoding="utf-8"?>
<!-- Generator: Adobe Illustrator 25.0.0, SVG Export Plug-In . SVG Version: 6.00 Build 0)  -->
<svg version="1.1" id="Слой_1" xmlns="http://www.w3.org/2000/svg" xmlns:xlink="http://www.w3.org/1999/xlink" x="0px" y="0px"
	 viewBox="0 0 3200 2000" style="enable-background:new 0 0 3200 2000;" xml:space="preserve">
<style type="text/css">
	.st0{fill:#EEEEEE;}
	.st1{fill:#B0D4FF;}
	.st2{fill:#95C0F4;}
	.st3{fill:#CAE5FF;}
	.st4{fill:#DFEDFB;}
	.st5{fill:#FFFFFF;}
	.st6{fill:#FFA412;}
	.st7{fill:#EEF6FF;}
	.st8{fill:#78ACEA;}
	.st9{fill:#BAE8E3;}
	.st10{fill:#A1D6CE;}
	.st11{fill:#F99746;}
	.st12{fill:#C0D8FB;}
	.st13{fill:#DFEBFD;}
	.st14{fill:#B7D3F3;}
	.st15{fill:#FFB27D;}
	.st16{fill:#233862;}
	.st17{fill:#A9453D;}
	.st18{fill:#ED975D;}
	.st19{fill:#2A4E96;}
	.st20{fill:#5F9AA8;}
	.st21{fill:#1E3D70;}
	.st22{fill:#ED7D2B;}
	.st23{fill:#163560;}
	.st24{fill:#B0D0FF;}
	.st25{fill:#98BAF4;}
	.st26{fill:#E8945B;}
	.st27{fill:#EBF3FA;}
	.st28{fill:#F2CCAA;}
	.st29{fill:#B5453C;}
	.st30{fill:#2B478B;}
	.st31{fill:#EBF3FF;}
	.st32{fill:#213F7A;}
	.st33{fill:#E2915A;}
</style>
<g>
	<path class="st0" d="M340.35,1664.42c0.13,0.1,2521.51-0.31,2521.51-0.31c83.01-177.06,82.87-263.57,92.31-365.06
		c52.15-560.95-370.35-647.19-494.12-670.58c-378.99-71.62-206.5-425.99-1194.08-359.51c-90.51,6.09-303.93,55.29-377.48,87.16
		c-51.59,22.34-245.95,122.29-302.97,291.36c-18.01,53.36-22.33,113.61-4.17,180.47c64.27,236.61-103.29,223.01-225.73,335.77
		C192.2,1314.22,209.28,1560.33,340.35,1664.42z"/>
	<g>
		<g>
			<path class="st1" d="M1842.27,1664.27h0.35c2.04,0,3.67-1.68,3.63-3.71l-5.5-238.41l-16.2-1.89l13.82,240.31
				C1838.48,1662.64,1840.2,1664.27,1842.27,1664.27z"/>
		</g>
		<g>
			<path class="st2" d="M1936.69,1664.27h0.35c2.04,0,3.67-1.68,3.63-3.71l-5.5-238.41l-16.2-1.89l13.82,240.31
				C1932.9,1662.64,1934.62,1664.27,1936.69,1664.27z"/>
		</g>
		<g>
			<path class="st1" d="M1676.15,1664.27h-0.35c-2.04,0-3.67-1.68-3.63-3.71l5.5-238.41l16.2-1.89l-13.82,240.31
				C1679.95,1662.64,1678.23,1664.27,1676.15,1664.27z"/>
		</g>
		<path class="st1" d="M1947.43,1407.36V1244c0-28.75-23.3-52.05-52.05-52.05h-117.7c-28.75,0-52.05,23.3-52.05,52.05v169.61
			L1947.43,1407.36z"/>
		<path class="st2" d="M1704.54,1433.15h227.26c8.63,0,15.63-7,15.63-15.63v-10.16h-242.89V1433.15z"/>
		<path class="st3" d="M1677.31,1433.15h171.93c6.38,0,11.56-5.17,11.56-11.56v-2.68c0-6.38-5.17-11.56-11.56-11.56h-171.93
			c-6.38,0-11.56,5.17-11.56,11.56v2.68C1665.75,1427.98,1670.93,1433.15,1677.31,1433.15z"/>
	</g>
	<g>
		<rect x="1394.95" y="547.53" class="st2" width="678.53" height="585.74"/>
		<g>
			<rect x="1407.87" y="557.29" class="st4" width="652.42" height="564.3"/>
			<g>
				<polygon class="st5" points="1635.9,802.81 1492.93,802.81 1492.93,624.29 1517.17,602.44 1635.9,602.44 				"/>
				<polygon class="st1" points="1492.93,624.29 1516.4,624.29 1517.17,602.44 				"/>
				<rect x="1541.53" y="619.81" class="st1" width="45.77" height="2.18"/>
				<rect x="1530.75" y="626.35" class="st1" width="67.33" height="2.18"/>
				<rect x="1509.86" y="668.35" class="st1" width="111.79" height="2.8"/>
				<rect x="1509.86" y="676.86" class="st1" width="111.79" height="2.8"/>
				<rect x="1509.86" y="685.37" class="st1" width="111.79" height="2.8"/>
				<rect x="1509.86" y="693.89" class="st1" width="111.79" height="2.8"/>
				<rect x="1509.86" y="784.97" class="st1" width="111.79" height="2.8"/>
			</g>
			<g>
				<polygon class="st5" points="1800.97,1050.49 1658.01,1050.49 1658.01,871.97 1682.25,850.12 1800.97,850.12 				"/>
				<polygon class="st1" points="1658.01,871.97 1681.47,871.97 1682.25,850.12 				"/>
				<rect x="1706.6" y="867.49" class="st1" width="45.78" height="2.18"/>
				<rect x="1695.83" y="874.03" class="st1" width="67.33" height="2.18"/>
				<rect x="1674.93" y="916.03" class="st1" width="111.79" height="2.8"/>
				<rect x="1674.93" y="924.54" class="st1" width="111.79" height="2.8"/>
				<rect x="1674.93" y="933.05" class="st1" width="111.79" height="2.8"/>
				<rect x="1674.93" y="941.56" class="st1" width="111.79" height="2.8"/>
				<rect x="1674.93" y="967.75" class="st1" width="111.79" height="2.8"/>
				<rect x="1674.93" y="976.27" class="st1" width="111.79" height="2.8"/>
				<rect x="1674.93" y="986.14" class="st1" width="111.79" height="2.8"/>
			</g>
			<g>
				<rect x="1802.71" y="602.44" class="st1" width="78.94" height="69.6"/>
				<path class="st6" d="M1838.72,610.72c0-1.91,1.55-3.46,3.46-3.46s3.46,1.55,3.46,3.46c0,1.91-1.55,3.46-3.46,3.46
					S1838.72,612.63,1838.72,610.72z"/>
			</g>
			<g>
				
					<rect x="1802.71" y="696.57" transform="matrix(0.9976 -0.0696 0.0696 0.9976 -46.4599 130.0657)" class="st5" width="78.94" height="69.6"/>
				<path class="st1" d="M1837.18,709.46c-0.13-1.9,1.3-3.56,3.21-3.69c1.9-0.13,3.56,1.3,3.69,3.21s-1.3,3.56-3.21,3.69
					C1838.97,712.8,1837.32,711.37,1837.18,709.46z"/>
			</g>
			<g>
				
					<rect x="1540.38" y="952.97" transform="matrix(0.9976 -0.0696 0.0696 0.9976 -64.9516 112.4174)" class="st5" width="78.94" height="69.6"/>
				<path class="st1" d="M1574.86,965.86c-0.13-1.9,1.3-3.56,3.21-3.69c1.9-0.13,3.56,1.3,3.69,3.21c0.13,1.9-1.3,3.56-3.21,3.69
					C1576.64,969.2,1574.99,967.77,1574.86,965.86z"/>
			</g>
			<g>
				
					<rect x="1439.13" y="1000.65" transform="matrix(0.9999 -0.0103 0.0103 0.9999 -10.5413 15.2183)" class="st5" width="78.94" height="69.6"/>
				<path class="st1" d="M1474.92,1013.29c-0.02-1.91,1.51-3.47,3.42-3.49c1.91-0.02,3.47,1.51,3.49,3.42
					c0.02,1.91-1.51,3.47-3.42,3.49C1476.5,1016.73,1474.94,1015.2,1474.92,1013.29z"/>
			</g>
			<g>
				
					<rect x="1914.2" y="742.34" transform="matrix(0.9844 0.1759 -0.1759 0.9844 167.1927 -331.5859)" class="st7" width="78.94" height="69.6"/>
				<path class="st8" d="M1955.18,751.64c0.29-1.63,1.85-2.72,3.49-2.43s2.72,1.85,2.43,3.49c-0.29,1.63-1.85,2.72-3.49,2.43
					C1955.97,754.83,1954.88,753.27,1955.18,751.64z"/>
			</g>
			<g>
				
					<rect x="1681.18" y="696.56" transform="matrix(0.9942 -0.1076 0.1076 0.9942 -68.7041 189.385)" class="st7" width="78.94" height="69.6"/>
				<path class="st8" d="M1714.93,706.46c-0.18-1.65,1.01-3.13,2.67-3.31c1.65-0.18,3.13,1.01,3.31,2.66
					c0.18,1.65-1.01,3.13-2.66,3.31C1716.59,709.31,1715.11,708.12,1714.93,706.46z"/>
			</g>
			<g>
				
					<rect x="1480.42" y="864.5" transform="matrix(0.978 -0.2085 0.2085 0.978 -154.1241 336.7323)" class="st9" width="78.94" height="69.6"/>
				<path class="st6" d="M1512.96,876.98c-1.39-0.9-1.79-2.76-0.89-4.16c0.9-1.39,2.76-1.79,4.16-0.89c1.39,0.9,1.79,2.76,0.89,4.16
					C1516.21,877.49,1514.35,877.89,1512.96,876.98z"/>
			</g>
			<g>
				<g>
					<polygon class="st5" points="1758.22,672.03 1683.08,672.03 1683.08,621.55 1703.88,602.44 1758.22,602.44 					"/>
					<polygon class="st1" points="1682.68,621.55 1703.2,621.55 1703.88,602.44 					"/>
				</g>
				<path class="st1" d="M1720.93,608.87c0-1.36,1.11-2.47,2.47-2.47s2.47,1.11,2.47,2.47c0,1.36-1.11,2.47-2.47,2.47
					S1720.93,610.24,1720.93,608.87z"/>
			</g>
			<g>
				<g>
					<polygon class="st5" points="1977.75,1085.29 1902.62,1085.29 1902.62,1034.8 1923.42,1015.69 1977.75,1015.69 					"/>
					<polygon class="st1" points="1902.22,1034.8 1922.74,1034.8 1923.42,1015.69 					"/>
				</g>
				<path class="st1" d="M1940.46,1022.13c0-1.36,1.11-2.47,2.47-2.47c1.37,0,2.47,1.11,2.47,2.47c0,1.36-1.11,2.47-2.47,2.47
					C1941.57,1024.6,1940.46,1023.49,1940.46,1022.13z"/>
			</g>
			<g>
				<g>
					<polygon class="st5" points="2012.03,985.1 1936.89,985.1 1936.89,934.62 1957.69,915.5 2012.03,915.5 					"/>
					<polygon class="st1" points="1936.49,934.62 1957.01,934.62 1957.69,915.5 					"/>
				</g>
				<path class="st1" d="M1974.74,921.94c0-1.36,1.11-2.47,2.47-2.47s2.47,1.11,2.47,2.47c0,1.36-1.11,2.47-2.47,2.47
					S1974.74,923.31,1974.74,921.94z"/>
			</g>
			<g>
				<g>
					<polygon class="st9" points="1912.87,985.1 1837.74,985.1 1837.74,934.62 1858.54,915.5 1912.87,915.5 					"/>
					<polygon class="st10" points="1837.34,934.62 1857.86,934.62 1858.54,915.5 					"/>
				</g>
				<path class="st11" d="M1875.58,921.94c0-1.36,1.11-2.47,2.47-2.47s2.47,1.11,2.47,2.47c0,1.36-1.11,2.47-2.47,2.47
					S1875.58,923.31,1875.58,921.94z"/>
			</g>
			<g>
				<g>
					<polygon class="st9" points="2033.23,654.61 1958.09,654.61 1958.09,604.13 1978.9,585.01 2033.23,585.01 					"/>
					<polygon class="st10" points="1957.69,604.13 1978.22,604.13 1978.9,585.01 					"/>
				</g>
				<path class="st11" d="M1995.94,591.45c0-1.36,1.11-2.47,2.47-2.47s2.47,1.11,2.47,2.47c0,1.36-1.11,2.47-2.47,2.47
					S1995.94,592.82,1995.94,591.45z"/>
			</g>
		</g>
	</g>
	<g>
		<path class="st12" d="M1290.22,533.36H1147.3c-6.56,0-11.93-5.37-11.93-11.93V383.49c0-6.56,5.37-11.93,11.93-11.93h142.92
			c6.56,0,11.93,5.37,11.93,11.93v137.94C1302.15,527.99,1296.78,533.36,1290.22,533.36z"/>
		<path class="st13" d="M1284.03,526.35h-130.54c-5.99,0-10.9-4.9-10.9-10.9V389.46c0-5.99,4.9-10.9,10.9-10.9h130.54
			c5.99,0,10.9,4.9,10.9,10.9v125.99C1294.92,521.45,1290.02,526.35,1284.03,526.35z"/>
		<g>
			<g>
				<path class="st14" d="M1215.3,393.34c0-1.91,1.55-3.45,3.45-3.45c1.91,0,3.45,1.55,3.45,3.45c0,1.91-1.55,3.45-3.45,3.45
					C1216.85,396.79,1215.3,395.24,1215.3,393.34z"/>
				<path class="st14" d="M1243.18,398.22c0.93-1.67,3.03-2.27,4.7-1.34c1.67,0.93,2.27,3.03,1.34,4.7
					c-0.93,1.67-3.03,2.27-4.7,1.34C1242.85,401.99,1242.25,399.89,1243.18,398.22z"/>
				<path class="st14" d="M1267.06,417.19c1.6-1.03,3.74-0.57,4.78,1.03c1.03,1.6,0.57,3.74-1.03,4.78
					c-1.6,1.03-3.74,0.57-4.78-1.03C1265,420.37,1265.46,418.23,1267.06,417.19z"/>
				<path class="st14" d="M1278.89,446.56c1.91,0,3.45,1.55,3.45,3.45c0,1.91-1.55,3.45-3.45,3.45c-1.91,0-3.45-1.55-3.45-3.45
					C1275.44,448.11,1276.98,446.56,1278.89,446.56z"/>
				<path class="st14" d="M1272.85,480.64c1.35,1.35,1.35,3.54,0,4.89c-1.35,1.35-3.54,1.35-4.89,0c-1.35-1.35-1.35-3.54,0-4.89
					C1269.31,479.29,1271.5,479.29,1272.85,480.64z"/>
				<path class="st14" d="M1251.16,502.39c1.35,1.35,1.35,3.54,0,4.89c-1.35,1.35-3.54,1.35-4.89,0c-1.35-1.35-1.35-3.54,0-4.89
					C1247.62,501.04,1249.81,501.04,1251.16,502.39z"/>
				<path class="st14" d="M1215.3,513.61c0-1.91,1.55-3.45,3.45-3.45c1.91,0,3.45,1.55,3.45,3.45c0,1.91-1.55,3.45-3.45,3.45
					C1216.85,517.06,1215.3,515.51,1215.3,513.61z"/>
			</g>
			<g>
				<path class="st14" d="M1194.22,398.22c-0.93-1.67-3.03-2.27-4.7-1.34c-1.67,0.93-2.27,3.03-1.34,4.7
					c0.93,1.67,3.03,2.27,4.7,1.34C1194.55,401.99,1195.15,399.89,1194.22,398.22z"/>
				<path class="st14" d="M1170.34,417.19c-1.6-1.03-3.74-0.57-4.78,1.03c-1.03,1.6-0.57,3.74,1.03,4.78
					c1.6,1.03,3.74,0.57,4.78-1.03C1172.41,420.37,1171.95,418.23,1170.34,417.19z"/>
				<path class="st14" d="M1158.51,446.56c-1.91,0-3.45,1.55-3.45,3.45c0,1.91,1.55,3.45,3.45,3.45c1.91,0,3.46-1.55,3.46-3.45
					C1161.97,448.11,1160.42,446.56,1158.51,446.56z"/>
				<path class="st14" d="M1164.55,480.64c-1.35,1.35-1.35,3.54,0,4.89c1.35,1.35,3.54,1.35,4.89,0c1.35-1.35,1.35-3.54,0-4.89
					C1168.09,479.29,1165.9,479.29,1164.55,480.64z"/>
				<path class="st14" d="M1186.25,502.39c-1.35,1.35-1.35,3.54,0,4.89c1.35,1.35,3.54,1.35,4.89,0c1.35-1.35,1.35-3.54,0-4.89
					C1189.78,501.04,1187.6,501.04,1186.25,502.39z"/>
			</g>
		</g>
		<g>
			<path class="st14" d="M1217.82,450.02c0-1.91,1.55-3.45,3.46-3.45c1.91,0,3.45,1.55,3.45,3.45c0,1.91-1.55,3.45-3.45,3.45
				C1219.37,453.47,1217.82,451.92,1217.82,450.02z"/>
			<g>
				<rect x="1220.81" y="406.86" class="st14" width="0.94" height="43.16"/>
			</g>
			<g>
				
					<rect x="1217.74" y="439.56" transform="matrix(0.7865 -0.6176 0.6176 0.7865 -9.2515 855.1856)" class="st14" width="29.09" height="2.83"/>
			</g>
		</g>
	</g>
	<g>
		<g>
			<path class="st15" d="M2170.05,1655.74c-0.68,9.28-13.78,9.38-28.64,7.66c-14.86-1.72-10.91,2.04-31.72,2.33
				c-20.81,0.29-27.98-6.59-28.99-9.56c-0.9-2.64,9.12-4.86,19.84-7.47c1.35-0.32,2.7-0.66,4.05-1.01
				c12.09-3.07,20.09-12.12,30.44-20.02c9.8-7.48,22.43-34.57,22.43-34.57l28.42-1.28c0,0-11.97,24.28-16.47,34.74
				c-2.64,6.16-1.52,13.72-0.37,19.53C2169.69,1649.24,2170.3,1652.47,2170.05,1655.74z"/>
			<path class="st16" d="M2141.42,1663.39c-14.86-1.72-10.91,2.04-31.72,2.33c-20.81,0.29-27.98-6.59-28.99-9.56
				c-0.9-2.64,9.12-4.86,19.84-7.47l0.13,0.2c0,0,13.4,7.19,30.53,5.47c13.97-1.4,28.22-7.23,37.85-8.27
				c0.62,3.16,1.23,6.39,0.98,9.66C2169.37,1665.02,2156.28,1665.12,2141.42,1663.39z"/>
		</g>
		<g>
			<path class="st15" d="M2366.37,1657.66c-0.67,9.28-13.77,9.4-28.63,7.69c-14.86-1.71-10.91,2.05-31.71,2.36
				c-20.81,0.31-27.99-6.56-29-9.53c-0.9-2.64,9.12-4.87,19.84-7.49c1.35-0.33,2.7-0.67,4.05-1.01
				c12.09-3.08,20.08-12.14,30.42-20.05c9.79-7.49,0.01-51.86,0.01-51.86l31.26-3.04c0,0-1.5,37.35-1.48,54.33
				c0.01,6.7,3.09,13.14,4.25,18.95C2365.99,1651.16,2366.61,1654.39,2366.37,1657.66z"/>
			<path class="st16" d="M2337.74,1665.35c-14.86-1.71-10.91,2.05-31.71,2.36c-20.81,0.31-27.99-6.56-29-9.53
				c-0.9-2.64,9.12-4.87,19.84-7.49l0.13,0.2c0,0,13.4,7.18,30.54,5.44c13.96-1.41,28.21-7.26,37.84-8.31
				c0.62,3.16,1.24,6.38,0.99,9.65C2365.69,1666.94,2352.6,1667.06,2337.74,1665.35z"/>
		</g>
		<path class="st17" d="M2275.13,890.93c-5.38-22.14,2.42-32.44,9.46-37.93c3.34-8.15,7.15-14.02,11.04-16.23
			c7.11-4.04,15.62-4.48,21.58-4.13c-1.53-1.58-4.55-2.16-4.55-2.16c3.69-0.55,11.94,3.11,11.94,3.11
			c51.37-19.79,59.45,55.85,58.37,73.42c-1.07,17.57-0.93,38.27,25.8,52.11c51,26.42-16.95,125.97-16.95,125.97
			c1.3-14.2-64.23-89.14-98.41-111.58c-8.32-12.25-11.28-33.89-11.5-35.6c1.44,17.16,4.37,26.79,7,32.21
			C2273.31,955.78,2271,921.34,2275.13,890.93z"/>
		<path class="st15" d="M2295.42,974.63c-0.17,0.08,16.51,8.74,29.05,5.31c11.8-3.22,19.51-18.52,19.35-18.55
			c-5-0.99-6.44-7.86-6.33-37.37l-2.26,0.44l-37.98,7.52c0,0,0.86,11.95,0.89,23.21C2298.16,964.65,2297.58,973.62,2295.42,974.63z"
			/>
		<path class="st18" d="M2297.24,931.98c0,0,0.86,11.95,0.89,23.21c21.25-0.6,32.49-19.99,37.09-30.74L2297.24,931.98z"/>
		<path class="st19" d="M2142.7,1608.14c-1.86,5.84,2.32,11.85,8.45,12.14l14.84,0.69l15.7,0.48c3.93,0.12,7.68-1.59,10.16-4.64
			c12.53-15.37,51.11-66.62,74.51-141.07c0.66-2.09,1.35-4.2,2.09-6.34c15.45-45.06,47.49-101.62,64.37-152.81
			c2.69-8.15,5.1-15.83,7.26-23.09c0.69-2.33,1.37-4.61,2.01-6.86c12.44-43.23,16.04-71.61,19.36-101.93l-121.91,0.98
			C2239.55,1185.69,2213.88,1385.16,2142.7,1608.14z"/>
		<path class="st5" d="M2256.61,1115.64c0.31,58.01-8.51,82.9-8.51,82.9s52.2,26.52,114.23,7c0.73-0.23,51.36-11.79,51.36-11.79
			c-1.04-2.35-10.27-41.44-11.28-43.6c-13.1-28.13-23.04-40.46-24.6-49.11c-2.88-16.14-2.95-32.85-1.51-48.6
			c3.78-41.7,15.04-76.32,15.04-76.32c-16.9-3.85-32.73-10.6-50.32-17.2c-4.05,5.04-16.42,10.31-27.15,10.07
			c-12.36-0.27-16.36-5.56-15.72-11.34c-13.17,7.33-23.68,14.25-23.68,14.25c-11.19,19.44-33.89,38.32-35.53,68.14
			C2238.55,1047.38,2256.61,1114.02,2256.61,1115.64z"/>
		<path class="st20" d="M2361.45,1122.11c5.33,7.54,15.55,53.38,40.96,59.15c-13.1-32.67-23.04-47-24.6-57.04
			c-2.88-18.75-2.95-38.15-1.51-56.45c-8.51-14.91-14.86-25.14-14.86-25.14c-0.67-2.41-13.52-42.16-17.64-6.63
			C2339.7,1071.52,2355.5,1113.67,2361.45,1122.11z"/>
		<path class="st15" d="M2290.14,942.64c0,0,50.29,0.83,50.32-30.5c0.03-31.32,6.55-52.31-25.56-54.17
			c-32.11-1.85-38.36,10.09-40.91,20.54C2271.44,888.98,2277.06,941.62,2290.14,942.64z"/>
		<path class="st17" d="M2292.01,857.21c0,0,13.77,36.75,34.9,42.18c21.13,5.43,30.3-0.23,30.3-0.23s-16.21-12.88-19.57-35.35
			C2337.63,863.82,2302.39,839.72,2292.01,857.21z"/>
		<path class="st17" d="M2295.42,860.2c0,0-10.28,8.21-12.79,16.18c-2.51,7.98-3.63,24.4-8.42,23.84c0,0-10.37-24.98,1.28-39.11
			C2287.85,846.12,2295.42,860.2,2295.42,860.2z"/>
		<polygon class="st15" points="2211.02,1155.91 2187.27,1228.32 2200.81,1233.75 2240.09,1169.77 		"/>
		<path class="st11" d="M2275.06,967.64c0,0-28.01,11.11-36.11,28.44c-8.11,17.33-20.38,133.55-25.27,145.48s-8.56,21.38-8.56,21.38
			s14.12,11.9,28.32,12.77S2275.06,967.64,2275.06,967.64z"/>
		<path class="st11" d="M2298.16,957.66c0,0-29.09,71.88-29.95,86.42c-0.86,14.55-3.42,237.87-3.42,237.87s1.71,10.27-17.97,5.99
			s-24.81-8.56-24.81-8.56s18.82-137.76,13.69-185.68c-5.13-47.92,39.36-126.07,39.36-126.07L2298.16,957.66z"/>
		<path class="st21" d="M2165.99,1620.98l17.05,0.52c3.05,0.09,5.96-1.22,7.91-3.57c11.46-13.88,51.42-65.82,75.42-142.17
			c0.66-2.09,1.35-4.2,2.09-6.34c15.45-45.06,47.49-101.62,64.37-152.81c2.69-8.15,5.1-15.83,7.26-23.09
			c0.69-2.33,1.37-4.61,2.01-6.86l-17.95-13.62c0,0-53.9,87.28-70.58,169.41C2239.06,1513.78,2181.01,1599.63,2165.99,1620.98z"/>
		<path class="st19" d="M2322.26,1450.09c-0.29,37.79,1.5,122.01,6.1,163.18c0.42,3.77,3.61,6.61,7.4,6.61h12.72
			c5.36,0,9.37-0.04,12.04-0.08c2.31-0.03,4.28-1.69,4.72-3.95c12.65-64.37,21.7-117.84,28.33-164.05
			c5.54-38.68,10.47-71.83,14.26-100.38c3.82-28.72,6.47-52.78,7.42-73.1c0.15-3.2,0.26-6.31,0.32-9.33
			c0.06-3.04,0.08-5.99,0.05-8.86l-105.33-10.27C2311.61,1319.85,2322.44,1426.87,2322.26,1450.09z"/>
		<path class="st21" d="M2348.48,1619.88c4.82,0,8.54-0.03,11.18-0.07c2.8-0.04,5.2-2.04,5.74-4.79
			c12.56-64,21.57-117.21,28.17-163.22c5.54-38.68,10.47-71.83,14.26-100.38c3.82-28.72,6.47-52.78,7.42-73.1l-38.65,22.74
			c0,0,24.67,8.7,15.26,74.59C2382.44,1441.53,2361.58,1610.55,2348.48,1619.88z"/>
		<path class="st11" d="M2343.51,1277.67c0,0,7.42,26.81,33.09,23.38c25.67-3.42,62.17-18.82,62.17-18.82s-10.97-34.66-24.61-80.2
			c-16.51-55.13-36.96-126.2-46.59-171.03c-2.7-12.56-4.55-23.05-5.24-30.56l-21.3-41.32c0,0-31.75,71.27-33.46,89.24
			S2343.51,1277.67,2343.51,1277.67z"/>
		<path class="st15" d="M2369.14,1045.68l-28.11-86.56c0.08,0.04,35.5,10.54,53.32,19.54c0,0,11.14,14.36,18.03,47.49
			c0,0,7.28,79.54-8.98,108.63c0,0-51.34,10.27-133.48-17.97v-18.82c0,0,89.84,4.71,108.24,6.84L2369.14,1045.68z"/>
		<path class="st22" d="M2344.65,1086.01c1.15,29.09,7.99,85.57,69.03,115.8c0.16,0.08,0.32,0.16,0.49,0.23
			c-16.51-55.13-36.96-126.2-46.59-171.03C2356.36,1047.76,2344.02,1069.99,2344.65,1086.01z"/>
		<path class="st11" d="M2341.03,959.12c0,0,52.1,3.67,64.65,31.62c12.55,27.95,16.54,120.93,0.57,148.31c0,0-21.99,6.26-60.88-1.01
			c-0.48-0.09-0.96-0.18-1.44-0.27c0,0-12.41-30.38-1.28-36.37c0,0,32.8,1.71,29.38-9.13
			C2368.61,1081.44,2341.03,959.12,2341.03,959.12z"/>
		<g>
			<path class="st17" d="M2210.39,1109.62l1.54,4.93l85.5-26.6c0,0,1.14-1.3,0.58-3.02c-0.62-1.91-2.11-1.91-2.11-1.91
				L2210.39,1109.62z"/>
			<polygon class="st17" points="2204.21,1114.28 2210.39,1109.62 2211.93,1114.55 			"/>
		</g>
		<path class="st15" d="M2190.64,1226.34c0,0-21.69,11.99-24.54,21.12c-2.85,9.13-0.89,28.25,2.55,27.97
			c3.44-0.29,8.58-20.55,11.43-21.97s6.85-5.7,6.85-2.57s-2.85,8.84-1.43,9.7s5.99-7.99,9.13-9.7c3.14-1.71,4.46-15.83,7.51-19.61
			C2205.2,1227.48,2190.64,1226.34,2190.64,1226.34z"/>
		<path class="st15" d="M2269.92,1097.99c0,0-19.4-11.95-27.53-10.11c-8.14,1.84-28.87,16.86-18.9,20.11s18.05-0.16,21.89,2.2
			s6.67,6.68,24.54,6.62C2287.8,1116.75,2269.92,1097.99,2269.92,1097.99z"/>
	</g>
	<g>
		<path class="st23" d="M744.53,969.65c-3.25-6.27,70.94-28.85,72.11,33.04c0,0,138.98-3.42,72.62-80.88
			c-22.97-26.82-20.61-48.99-19.92-69.63c0.7-20.64-14.31-80.63-65.75-74.59c0,0-13.47-5.48-30.28,3.24
			C735.07,800.66,649.42,992.47,744.53,969.65z"/>
		<path class="st15" d="M971.74,1038.84c0,0,9.05-13.77,16.34-14.04c7.29-0.27,20.79-4.05,19.71-1.35
			c-1.08,2.7-9.45,2.97-10.26,4.59c-0.81,1.62,12.42,4.05,16.2,4.32c3.78,0.27,12.69,0,12.42,1.89c-0.27,1.89-16.06,9.72-27.2,8.64
			c-11.14-1.08-24.91,3.24-24.91,3.24L971.74,1038.84z"/>
		<path class="st24" d="M840.91,1043.29c0,0,4.92,9.74,13.84,20.92c10.75,13.46,27.32,29.02,48.14,32.09
			c9.94,1.47,19.66-0.67,28.6-4.64c0.02-0.01,0.03-0.01,0.03-0.01c25.27-11.22,44.28-37.02,44.28-37.02
			c4.46-12.15-2.83-20.39-2.83-20.39s-51.04,11.48-55.9,9.05c-4.86-2.43-33.21-84.11-39.96-94.38
			c-6.76-10.26-29.76-15.59-29.76-15.59L840.91,1043.29z"/>
		<path class="st25" d="M854.74,1064.22c10.75,13.46,27.32,29.02,48.14,32.09c9.94,1.47,19.66-0.67,28.6-4.64
			c-0.99,0.13-26.23,3.25-36.29-14.75c-10.26-18.37-21.36-47.53-36.61-37.81C852,1043.3,852.29,1053.73,854.74,1064.22z"/>
		<path class="st16" d="M650.5,1594.2c0,0-15.57,14.21-12.53,24.31c3.04,10.1,17.09,16.83,18.99,29.17
			c1.9,12.34,9.5,19.07,16.33,19.07s32.6,0,32.6,0s5.03-8.69-7.12-11.3c-12.15-2.62-16.74-17.12-15.98-30.59
			c0.76-13.46-1.14-31.42-1.14-31.42l-25.83-5.98L650.5,1594.2z"/>
		<path class="st16" d="M782.31,1600.23c0,0-5.6,60.21,1.23,63.57l87.5-0.18c0,0,0-10.1-14.05-12.34
			c-14.05-2.24-38.74-10.47-42.92-28.8C809.89,1604.16,782.31,1600.23,782.31,1600.23z"/>
		<path class="st15" d="M719.96,1168.3c18.01-40.38,29.02-51.97,26.92-64.5c-1.57-9.33,4.77-173.92,4.77-173.92
			c2.14-0.66,6.42-1.25,8.76-1.77c7.39-1.64,13.5-6.83,16.04-13.95c3.06-8.58,5.5-21.26,5.44-37.14l2.31,0.45l38.78,7.68
			c0,0-0.88,12.2-0.91,23.7c0,0.1,0,0.19,0,0.29c-0.05,9.99,6.5,18.8,16.1,21.57c4.9,1.41,9.16,2.62,9.16,2.62
			s14.24,40.66,16.96,82.42c2.72,41.77-25.9,59.91,0.22,143.37C891.16,1244.36,710.01,1190.61,719.96,1168.3z"/>
		<path class="st26" d="M822.98,885.15c0,0-0.88,12.2-0.91,23.7c-21.7-0.61-33.17-20.41-37.87-31.38L822.98,885.15z"/>
		<path class="st15" d="M830.22,896.03c0,0-51.35,0.85-51.38-31.14c-0.04-31.98-6.69-53.41,26.09-55.31
			c32.78-1.89,39.16,10.3,41.77,20.98S843.58,894.99,830.22,896.03z"/>
		<path class="st23" d="M828.32,808.81c0,0-14.06,37.52-35.63,43.07c-21.57,5.55-30.93-0.23-30.93-0.23s16.55-13.15,19.98-36.09
			C781.74,815.55,817.72,790.95,828.32,808.81z"/>
		<path class="st23" d="M824.84,811.85c0,0,10.42,3.9,14.72,11.5c4.2,7.44,7.77,17.28,6.94,29.36c0,0,10.59-25.5-1.31-39.93
			C832.56,797.49,824.84,811.85,824.84,811.85z"/>
		<path class="st27" d="M819.05,876.19c0,0,3.54,4.66,10.63,4.33c5.71-0.27,7.91-5.22,7.91-5.22S827.11,872.77,819.05,876.19z"/>
		<path class="st24" d="M715,1002.68c0,0-1.3,18.38,0,40.44c0.87,14.62,15.66,34.21,17.76,39.05c5.27,12.15,11.2,14.13,11.2,14.13
			l45.94,11.26l16.15,3.95l50.94-15.21c0,0,23.2-64.76,13.89-101.21c-9.32-36.45-23.55-61.77-23.55-61.77s-41.57,40.7-95.69-3.45
			L715,1002.68z"/>
		<path class="st28" d="M728.45,1049.09c0.87,14.62,2.21,28.24,4.31,33.08c5.27,12.15,11.2,14.13,11.2,14.13l45.94,11.26l19.95-5.87
			c0,0-66.61-10.09-59.23-67.4L728.45,1049.09z"/>
		<path class="st22" d="M853.75,1106.14c0,0,25.23,78.52,26.85,105.25c1.62,26.73-48.22,379.77-50.23,392.09
			c-1.89,11.61-16.31,19.01-16.31,19.01s-6.63,3.91-16.1,1.24c-13.13-3.71-17.28-8.15-17.28-8.15s-19.63-251.78-7.48-341.72
			c12.15-89.94,12.29-167.72,12.29-167.72H853.75z"/>
		<path class="st11" d="M746.88,1103.8c0,0-38.48,51.63-42.07,86.53c-3.59,34.9-5.63,157.5-13.27,191.52
			c-7.64,34.02-35.72,99.5-35.72,205.62c0,0,2.92,6.08,11.93,9.32c2.88,1.04,6.74,2.04,10.49,2.9c7.43,1.7,15.06-1.93,18.45-8.76
			c18.98-38.22,79.46-161.5,82.56-187.09c2.19-18.11,21.29-137.96,62.94-208.29c10-16.88-6.14-84.03-6.14-84.03L746.88,1103.8z"/>
		<path class="st5" d="M820.19,877.05c0,0,0.89,3.77,10.26,3.19c0,0,7.87-0.49,7.63-4.63C838.09,875.61,830.46,872.66,820.19,877.05
			z"/>
		<path class="st16" d="M857.78,1094.02c0,0-10.13,8.01-30.25,8.42c-24.03,0.48-83.57-6.13-83.57-6.13s-2.65,7.39-2.54,15.2
			c0,0,72.72,18.34,114.86,2.68C856.29,1114.18,861.72,1103.96,857.78,1094.02z"/>
		<g>
			<path class="st5" d="M822.34,1110.73c0-6.84,4.92-12.41,10.96-12.41c6.05,0,10.97,5.57,10.97,12.41s-4.92,12.41-10.97,12.41
				C827.26,1123.14,822.34,1117.57,822.34,1110.73z M825.97,1110.73c0,4.84,3.29,8.78,7.33,8.78c4.04,0,7.33-3.94,7.33-8.78
				c0-4.84-3.29-8.78-7.33-8.78C829.26,1101.95,825.97,1105.89,825.97,1110.73z"/>
		</g>
		
			<rect x="697.93" y="1022.05" transform="matrix(-0.7542 -0.6567 0.6567 -0.7542 595.3665 2402.2119)" class="st29" width="98.8" height="135.24"/>
		<path class="st15" d="M760.77,1108.46c0,0,27.3,3.19,27.21,9.67c-0.09,6.48-6.8,19.79-10.17,20.38c-3.37,0.59-22.22-18-22.22-18
			L760.77,1108.46z"/>
		<path class="st24" d="M751.64,929.87c0,0-36.45,2.56-50.42,36.52c-13.97,33.96-40.48,90.99-40.48,100.58
			c0,9.59,14.81,39.17,94.33,56.17c0,0,8.23-8.65,7.73-15.49c0,0-49.64-42.64-49.51-47.62c0.25-9.43,8.14-21.87,51.72-65.47
			C776.86,982.7,751.64,929.87,751.64,929.87z"/>
	</g>
	<g>
		<g>
			<g>
				<path class="st1" d="M1154.32,1664.9h-0.35c-2.04,0-3.67-1.68-3.63-3.71l5.5-238.41l16.2-1.89l-13.82,240.31
					C1158.12,1663.28,1156.4,1664.9,1154.32,1664.9z"/>
			</g>
			<g>
				<path class="st2" d="M1059.91,1664.9h-0.35c-2.04,0-3.67-1.68-3.63-3.71l5.5-238.41l16.2-1.89l-13.82,240.31
					C1063.7,1663.28,1061.98,1664.9,1059.91,1664.9z"/>
			</g>
			<g>
				<path class="st1" d="M1320.45,1664.9h0.35c2.04,0,3.67-1.68,3.63-3.71l-5.5-238.41l-16.2-1.89l13.82,240.31
					C1316.65,1663.28,1318.37,1664.9,1320.45,1664.9z"/>
			</g>
			<path class="st1" d="M1049.17,1408v-163.37c0-28.75,23.3-52.05,52.05-52.05h117.7c28.75,0,52.05,23.3,52.05,52.05v169.61
				L1049.17,1408z"/>
			<path class="st2" d="M1292.06,1433.79H1064.8c-8.63,0-15.63-7-15.63-15.63V1408h242.89V1433.79z"/>
			<path class="st1" d="M1319.29,1433.79h-171.93c-6.38,0-11.56-5.17-11.56-11.56v-2.68c0-6.38,5.17-11.56,11.56-11.56h171.93
				c6.38,0,11.56,5.17,11.56,11.56v2.68C1330.85,1428.62,1325.67,1433.79,1319.29,1433.79z"/>
		</g>
		<g>
			<path class="st16" d="M1312.62,1367.29c-16.86,29.35-38.07,40.68-38.07,40.68h-88.23
				C1186.32,1407.97,1325.48,1344.9,1312.62,1367.29z"/>
			<g>
				<path class="st15" d="M1244.85,1594.35c-2.3,2.64-2.59,5.58-1.45,8.72c0,0.01,0.01,0.03,0.02,0.04
					c2.1,5.81,9.06,12.31,17.13,18.79c1.03,0.83,1.95,1.59,2.75,2.29c0.21,0.18,0.42,0.37,0.62,0.55c0.16,0.14,0.32,0.29,0.47,0.43
					c7.53,6.94,4.7,8.53,18.23,22.62c15.43,16.05,26.05,16.34,29.07,14.88c2.56-1.25-2.64-9.76-8.39-19.33
					c-0.28-0.46-0.55-0.93-0.84-1.4c-0.77-1.27-1.53-2.56-2.29-3.84c-6.74-11.52-5.01-16.92-3.41-34.06
					c1.3-13.93,21.67-77.8,21.67-77.8l-29.56-5.09c0,0-8.9,50.86-18.71,58.7c-5.25,4.17-11.12,4.23-16.16,7.32
					c-0.36,0.21-0.71,0.44-1.05,0.66C1250.08,1589.75,1247.16,1591.71,1244.85,1594.35z"/>
				<path class="st16" d="M1244.85,1594.35c-2.3,2.64-2.59,5.58-1.45,8.72c0,0.01,0.01,0.03,0.02,0.04
					c2.58,5.81,9.35,12.27,17.16,18.73c1.02,0.85,1.92,1.62,2.72,2.35c0.21,0.18,0.42,0.37,0.62,0.55c0.16,0.14,0.32,0.29,0.47,0.43
					c7.53,6.94,4.7,8.53,18.23,22.62c15.43,16.05,26.05,16.34,29.07,14.88c2.56-1.25-2.64-9.76-8.39-19.33
					c-3-1.1-16.95-6.77-27.5-20.26c-9.29-11.85-15.48-27.08-21.81-35.91c-0.36,0.21-0.71,0.44-1.05,0.66
					C1250.08,1589.75,1247.16,1591.71,1244.85,1594.35z"/>
				<path class="st15" d="M1483.23,1575.89c1.83,9.13,14.83,7.6,29.37,4.05c14.53-3.55,11.08,0.67,31.76-1.62
					c20.68-2.29,26.95-10,27.58-13.08c0.56-2.73-9.65-3.69-20.62-4.95c-1.38-0.15-2.76-0.33-4.15-0.5
					c-12.38-1.55-21.44-9.54-32.68-16.1c-10.65-6.21-26.54-31.52-26.54-31.52l-28.36,2.25c0,0,14.88,22.61,20.64,32.44
					c3.39,5.78,3.21,13.43,2.78,19.33C1482.79,1569.4,1482.58,1572.68,1483.23,1575.89z"/>
				<path class="st16" d="M1512.59,1579.94c14.53-3.55,11.08,0.67,31.76-1.62c20.68-2.29,26.95-10,27.58-13.08
					c0.56-2.73-9.65-3.69-20.62-4.95l-0.1,0.21c0,0-12.4,8.79-29.62,9.21c-14.03,0.34-28.89-3.68-38.58-3.52
					c-0.22,3.21-0.43,6.49,0.22,9.7C1485.05,1585.02,1498.06,1583.49,1512.59,1579.94z"/>
				<path class="st16" d="M1374.53,1394.52l-26.52,71.35l-34.62,93.16c0,0-9.39,0.91-18.39-1.68c-8.28-2.39-17.79-8.66-17.79-8.66
					s9.61-100.03,27.54-157.45c4.6-14.74,9.75-26.66,15.43-33.37C1347.99,1325.02,1374.53,1394.52,1374.53,1394.52z"/>
				<path class="st30" d="M1347.57,1281.21c-17.37-5.6-66.92,1.59-116.69,11.33l-10.42-17.19l-107.5-8.4
					c0,0-35.47,78.67-16.05,128.79c2.85,7.37,8.53,12.09,18.19,12.25c0,0,1.57,0,1.57,0c0,0,63.98-0.04,84.76-0.04
					c53.46,0,113.14-36.75,120.87-38.29c12.64-2.53,17.69,22.75,30.33,49.28c12.64,26.54,118.79,117.53,118.79,117.53
					s16.31,0.16,23.05-2.37c7.25-2.72,9.9-6.25,9.9-6.25S1386.74,1293.84,1347.57,1281.21z"/>
				<path class="st16" d="M1216.23,962.33c-13.77-7.23-34.73-8.21-38.13-8.67c-40.74-5.47-65.25,53.72-66.7,71.66
					c-2.66,33.06-20.15,38.1-44.76,58.81c-49.36,41.51-34.88,89.75-7.9,107.68c16.19,10.75,44.74,0,44.74,0
					c0.4,0.28,78.06-43.41,116.34-64.49C1277.22,1119.15,1251.32,980.75,1216.23,962.33z"/>
				<path class="st15" d="M1187.74,1109.37c0.17,0.11-18.83,6.6-31.54,0.97c-11.95-5.28-21.01-24.95-20.83-24.96
					c5.44-0.25,11.41-5,16.01-36.2l2.32,0.83l38.93,14.01c0,0-2.82,12.49-4.65,24.39
					C1186.44,1098.39,1185.62,1107.95,1187.74,1109.37z"/>
				<path class="st18" d="M1192.62,1064.01c0,0-2.82,12.49-4.65,24.39c-22.36-4.03-31.14-26.31-34.29-38.4L1192.62,1064.01z"/>
				<path class="st15" d="M1198.42,1076.41c0,0-53.27-7.15-48.31-40.25c4.96-33.1,1.43-56.32,35.65-53.16
					c34.22,3.17,38.92,16.79,39.95,28.24C1226.75,1022.69,1212.41,1077.42,1198.42,1076.41z"/>
				<path class="st16" d="M1223.78,993.09c0,0-34.1,29.39-57.29,31.75c-23.19,2.37-31.98-5.08-31.98-5.08s13.67-11.35,21.9-29.67
					c2.42-5.4,7.55-9.1,13.45-9.61C1186.41,979.06,1217.81,978.41,1223.78,993.09z"/>
				<path class="st16" d="M1202.46,990.46c0,0,11.41,11.03,15,19.21c3.47,7.89,4.51,26.78,1.75,34.28c0,0,17.77-34.56,7.71-51.35
					C1216.25,974.79,1202.46,990.46,1202.46,990.46z"/>
				<path class="st5" d="M1232.6,1187.84c-1.61,107.83-0.44,85.3-12.24,95.53c-2.84,2.46-10.83,3.93-21.35,4.63
					c-33.06,2.19-91.19-3.25-93.4-9.36c-7.63-21.14-2.24-27.71-8.6-60.08c-0.66-3.44-1.48-7.17-2.45-11.23
					c-5.31-22.23-10.47-29.8,8.35-65.51c17.07-32.35,34.8-58.61,36.4-57.66c45.03,26.73,48.66,4.26,48.66,4.26
					S1233.39,1135.24,1232.6,1187.84z"/>
				<path class="st30" d="M1348.01,1465.87l-34.62,93.16c0,0-9.39,0.91-18.39-1.68c-8.28-2.39-17.79-8.66-17.79-8.66
					s9.61-100.03,27.54-157.45L1348.01,1465.87z"/>
				<path class="st5" d="M1187.98,1088.4c0,0,46.34,7.86,51.78,27.81c5.44,19.95,37.46,137.24,37.46,137.24s-23.56,4.23-34.44-6.65
					c-10.88-10.88-37.87-100.96-37.87-100.96L1187.98,1088.4z"/>
				<path class="st31" d="M1199.01,1287.99c-33.06,2.19-91.19-3.25-93.4-9.36c-7.63-21.14-2.24-27.71-8.6-60.08l15.95-44.91
					c0,0-2.64,50.01,12.11,63.16c14.73,13.15,60.38,25.39,67.55,36.38C1196.08,1278.45,1198.35,1283.74,1199.01,1287.99z"/>
				<path class="st15" d="M1161.13,1266.96c0,0,32.62-7.26,37.88-4.37c5.26,2.89,18.13,13.44,19.74,17.11
					c1.61,3.67-11.72-2.79-16.05-3.95c-2.81-0.75-10.2,1.81-13.86,3.03c-15.4,5.13-24.83,2.49-24.83,2.49L1161.13,1266.96z"/>
				<path class="st5" d="M1139.29,1084.12c0,0-43.8,2.7-58.96,23.84c-21.34,29.77-63.68,156.64-39.42,173.56
					c27.33,19.05,124.37,4.98,124.37,4.98s3.23-15.09-1.26-22.4c-4.49-7.3-77.51-19.1-80.88-22.47s42.13-65.72,42.13-75.83
					C1125.26,1155.71,1139.29,1084.12,1139.29,1084.12z"/>
				<path class="st15" d="M1200.59,1271.67c0,0,6.83,8.82,9.08,9.87c2.24,1.05,3.69,0.79,3.69,0.79l-4.61-8.29L1200.59,1271.67z"/>
				<path class="st15" d="M1199.01,1262.59l19.87,9.65c0,0-0.85,1.38-3.29,1.27c-2.45-0.11-8.62-2.37-8.62-2.37L1199.01,1262.59z"/>
			</g>
			<g>
				<g>
					<polygon class="st11" points="1209.67,1295.04 1366.86,1295.04 1414.14,1177.46 1257.2,1177.46 					"/>
					<polygon class="st22" points="1368.7,1290.46 1161.13,1290.46 1161.13,1295.04 1366.86,1295.04 					"/>
				</g>
				<path class="st5" d="M1327.18,1236.25c1.19-4.13-1.2-7.48-5.34-7.48c-4.13,0-8.44,3.35-9.63,7.48c-1.19,4.13,1.2,7.48,5.34,7.48
					C1321.68,1243.73,1325.99,1240.38,1327.18,1236.25z"/>
			</g>
		</g>
	</g>
	<g>
		<g>
			<path class="st8" d="M2030.65,1669.25h0.46c2.69,0,4.86-2.35,4.8-5.2l-7.27-333.8l-21.43-2.65l18.27,336.47
				C2025.63,1666.98,2027.9,1669.25,2030.65,1669.25z"/>
		</g>
		<g>
			<path class="st8" d="M1161.91,1669.25h-0.46c-2.69,0-4.86-2.35-4.8-5.2l7.27-333.8l21.43-2.65l-18.27,336.47
				C1166.93,1666.98,1164.66,1669.25,1161.91,1669.25z"/>
		</g>
		<path class="st8" d="M2056.45,1336.4H1139.7c-7.51,0-13.6-6.09-13.6-13.6v-13.09c0-7.51,6.09-13.6,13.6-13.6h916.75
			c7.51,0,13.6,6.09,13.6,13.6v13.09C2070.05,1330.31,2063.96,1336.4,2056.45,1336.4z"/>
	</g>
	<path class="st4" d="M939.91,724.02c-3.46-85.71,68.38-123.79,141.83-123.79s153.39,19.03,160.32,133
		c4.46,73.32-34.63,118.43-147.18,118.43c-37.96,0-67.46-5.99-90.05-16.66L948.57,885l27.65-69.1
		C951.73,793.13,941.41,761.01,939.91,724.02z"/>
	<g>
		<path class="st16" d="M2609.41,1668.89c0,0,2.07-16.1,6.85-25.67c4.79-9.57,35.25-3.48,35.25-3.48s6.09,5.22,7.4,29.59
			L2609.41,1668.89z"/>
		<path class="st16" d="M2505.63,1668.67c7.16-4.37,3.08-36.96,3.08-36.96s-33.35-26.68-37.94-6.25s-31.68,29.6-47.11,32.1
			c-10.65,1.73-13.94,7.62-14.97,11.11H2505.63z"/>
		<path class="st32" d="M2574.71,1431.63c-1.36,7.48-2.22,13.62-2.45,18.01c-3.1,60.48-50.91,198.75-59.46,201.98
			c-13.23,4.99-34.07-5.62-44.97-9.09c-4.52-1.44-7.57-6-6.56-10.62c23.67-108.84,32.38-265.56,35.54-358.34
			c1.6-46.74,9.62-79.02,9.62-79.02s116.6-31.11,117.29,8.24C2624.35,1237.61,2585.11,1374.18,2574.71,1431.63z"/>
		<path class="st16" d="M2574.71,1431.63l-77.89-158.07c1.6-46.74,9.62-79.02,9.62-79.02s116.6-31.11,117.29,8.24
			C2624.35,1237.61,2585.11,1374.18,2574.71,1431.63z"/>
		<path class="st32" d="M2548.77,1202.93l61.64,446.74c0,0,27.07,6.53,48.12,1.31c0,0,18.05-237.59,16.54-295.03
			c-1.5-57.44,12.95-153.7-3.3-164.32C2655.52,1181,2548.77,1202.93,2548.77,1202.93z"/>
		<path class="st24" d="M2683.79,1195.48c0.3,4.04-2.29,7.71-6.17,8.84c-8.6,2.5-18.51,4.23-37.63,8.19
			c-17.96,3.73-42.12,7.03-71.8,7.21c-47.21,0.3-65.09-15.97-65.09-15.97c-2.03,0.04,1.07-9.84,3.87-56.83
			c0.95-15.92,1.86-36.09,2.52-61.59c0.6-22.94,1-50.2,1.04-82.53c0.05-38.9,60.26-80.74,61.37-80.74l0.01,0.02
			c0,5.6,8.83,15.94,22.42,16.83c16.14,1.06,35.93-6.98,35.93-16.27c0-0.09,29.17,46.66,39.53,96.48
			C2675.02,1044.2,2672.9,1043.53,2683.79,1195.48z"/>
		<path class="st24" d="M2571.89,922.07c0,0-55.98-0.48-69.46,18.42c-13.47,18.9-43.01,120.55-27.6,154.37
			c15.42,33.82,44.26-13.99,60.27-34.71C2551.12,1039.43,2571.89,922.07,2571.89,922.07z"/>
		<path class="st15" d="M2571.32,913.52l0.03,5.79c0,0-1.58,18.1,20.71,20.74c22.29,2.65,38.83-3.38,38.22-17.35
			c-2.01-10.81-3.87-21.92-4.02-30.87c-0.05-3.33,0.17-6.85,0.79-10.84l-43.19-0.86l-12.72,2.08L2571.32,913.52z"/>
		<path class="st33" d="M2571.16,882.22l0.17,31.31c4.59,2.13,9.76,3.43,15.57,3.43c19.85,0,32.68-14.55,39.38-25.12
			c-0.05-3.33,0.17-6.85,0.79-10.84l-43.19-0.86L2571.16,882.22z"/>
		<path class="st15" d="M2630.37,874.05c-5.01,26.97-39.81,26.08-54.84,24.39c-4.23-0.47-6.89-1.01-6.89-1.01
			c-4.77-1.27-7.43-8.79-8.67-18.63c-2.46-19.48,0.65-48.08,3.94-55.4c4.95-11.01,14.28-22.91,49.33-14.32
			C2648.27,817.67,2636.8,839.5,2630.37,874.05z"/>
		<path class="st25" d="M2514.64,997.82c0,0-21.65,47.82-21.02,62.15c0,0,10.72-0.37,21.02,2.7
			C2531.57,1067.72,2514.64,997.82,2514.64,997.82z"/>
		<path class="st16" d="M2553.15,797.73c0,0,15.42-1.19,33.62-9.1c14.76-6.42,33.39,0.65,39.44,3.84c-0.16-0.97-0.55-2.3-1.47-3.64
			c0,0,2.71,1.92,3.12,4.62c0.28,0.21,0.4,0.35,0.33,0.4c0,0,3.08-0.56,5.06,0.33c0,0-1.38-0.2-1.88,0.69
			c-0.05,0.09-0.13,0.17-0.22,0.25c23.03,11.13,25.16,47.53,17.75,55.95c-8.92,10.13-22.38,33.06-22.38,33.06s-1.13-5.5,0.5-14.42
			c1.62-8.92-6.08-8.92-15.81-12.97c-9.73-4.05-1.62-15.4-10.13-22.29c-8.51-6.89-39.72-2.84-39.32-8.11
			C2550.15,822.11,2553.15,798.91,2553.15,797.73z"/>
		<path class="st25" d="M2637.43,1087.4c-9.14,36.7-107.99,55.67-130.46,59.53c0.95-15.92,1.86-36.09,2.52-61.59L2637.43,1087.4z"/>
		<path class="st15" d="M2615.73,1099.33c0.94,0,21.98-3.14,25.74-5.02s21-26.37,9.71-32.65c-11.28-6.28-41.57,18.83-41.57,18.83
			L2615.73,1099.33z"/>
		<path class="st24" d="M2487.8,1106.6c0,0,81.35,4.41,135.94-7.28c0,0,1.38-15.77-15.78-22.78c0,0-85.08-18.03-105.53-13.01
			C2482,1068.56,2487.8,1106.6,2487.8,1106.6z"/>
		<path class="st24" d="M2674.62,1042.76c-16.88,20.36-38.95,36.97-63.28,40.87l-0.01-0.01c-0.2-0.31-7.37-11.18-6.02-27.17
			c0.62-7.4,3.06-15.89,8.86-24.94c1.78-2.78,3.37-6.03,4.78-9.64c13.29-33.9,11.31-99.23,11.31-99.23s56.42,5.91,74,31.02
			C2715.03,969.05,2701.29,1010.58,2674.62,1042.76z"/>
		<path class="st33" d="M2575.53,898.44c-4.23-0.47-6.89-1.01-6.89-1.01c-4.77-1.27-7.43-8.79-8.67-18.63
			c8.95,2.2,13.05,9.12,14.75,12.06C2575.49,892.18,2575.65,895.15,2575.53,898.44z"/>
		<path class="st15" d="M2552.8,913.69c0,0-19.49-32.15-4.33-33.55c15.15-1.4,21.24,8.86,23.43,12.62
			c2.19,3.77-0.57,20.76-0.57,20.76L2552.8,913.69z"/>
		<path class="st24" d="M2627.06,1055.38c-0.6,4.08-1.81,7.82-3.32,11.16c-4.76,10.57-12.41,17.09-12.41,17.09l-0.01-0.01
			c-50.61-22.84-60.85-101.28-62.56-144.38c-0.69-17.32,0-28.94,0-28.94c22.83-7.56,29.25,5.58,29.25,5.58s26.95,64.1,40.94,105.99
			C2624.3,1037.9,2627.75,1050.69,2627.06,1055.38z"/>
		<path class="st25" d="M2674.62,1042.76c-16.88,20.36-38.95,36.97-63.28,40.87l-0.01-0.01c-50.61-22.84-60.85-101.28-62.56-144.38
			c0,0,23.95,86.85,56.54,117.21c5.89,5.49,12.07,9.14,18.43,10.08c0,0,41.1-11.62,49.72-22.55
			C2674.08,1043.2,2674.45,1042.81,2674.62,1042.76z"/>
	</g>
	<g>
		<g>
			<polygon class="st30" points="1752.9,1296.12 1595.71,1296.12 1548.43,1178.53 1705.38,1178.53 			"/>
			<polygon class="st30" points="1593.87,1291.54 1801.44,1291.54 1801.44,1296.12 1595.71,1296.12 			"/>
		</g>
		<path class="st5" d="M1635.39,1237.33c-1.19-4.13,1.2-7.48,5.34-7.48c4.13,0,8.44,3.35,9.63,7.48s-1.21,7.48-5.34,7.48
			C1640.89,1244.81,1636.58,1241.46,1635.39,1237.33z"/>
	</g>
</g>
</svg>
